P3
4 4
15
0 0 0 
0 0 0 0 0 0 10 0 10 0 0 0 
0 10 0 0 0 0 0 0 0 0 0 0 
0 0 0 0 10 0 0 0 0 10 0 10 
0 0 0 0 0 0 0 0 0 